<svg xmlns="http://www.w3.org/2000/svg" width="48" height="48" viewBox="0 0 12.7 12.7"><path d="m6.351 2.24718-2.8985 8.6915h.56017l1.1322-3.3962 3.3962 3.3962h.70642l-.01964-.05943-.22273-.66869Zm0 1.6759.48524 1.4557-1.2904.95963zm.66198 1.9849 1.3782 4.1346-2.96-2.9595z" color="#000" style="font-variant-ligatures:normal;font-variant-position:normal;font-variant-caps:normal;font-variant-numeric:normal;font-variant-alternates:normal;font-variant-east-asian:normal;font-feature-settings:normal;font-variation-settings:normal;text-indent:0;text-decoration-line:none;text-decoration-style:solid;text-decoration-color:#000;text-transform:none;text-orientation:mixed;white-space:normal;shape-padding:0;shape-margin:0;inline-size:0;isolation:auto;mix-blend-mode:normal"/><circle cx="6.35" cy="2.24898" r=".92604"/><path d="M1.21181 1.05833a5.27676 5.27676 0 0 0-.13746 1.18753v.00206C1.0745 4.19806 2.13641 5.9021 3.71243 6.8151l.17054-.51108c-1.36743-.83216-2.27933-2.33554-2.27945-4.05609.00066-.37958.04624-.75847.13694-1.12706l.0155-.06253h-.54415zm9.73584 0 .01499.05891a4.75166 4.75166 0 0 1 .13694 1.13068c-.00012 1.72096-.9125 3.2246-2.28048 4.0566l.17053.51108c1.57658-.9128 2.63898-2.61715 2.63912-4.56768-.0002-.39998-.04625-.7999-.13643-1.18959h-.54467zM3.39773 1.05833c-.15292.37743-.233.77934-.23358 1.18753v.00206c.00003 1.02083.48343 1.93073 1.233 2.51406l.17828-.53536c-.5419-.48577-.8821-1.19139-.88212-1.9787.00054-.37273.08033-.74187.23255-1.0821l.04806-.10749h-.5762zm5.333 0 .04858.10749c.15157.34037.22847.7095.2284 1.0821-.00001.78719-.33987 1.49242-.88107 1.97818l.17828.53588c.74916-.58332 1.23194-1.4931 1.23197-2.51406a3.18624 3.18624 0 0 0-.22996-1.18959h-.5762z" color="#000" style="-inkscape-stroke:none"/><path fill="none" d="M6.351 2.24718 1.21181 1.05833h10.28051L6.351 2.24718z"/><path fill="none" d="M6.351 2.24718 1.21181 1.05833h10.28051L6.351 2.24718z"/><path fill="none" d="M1.21181 1.05833h10.28051L6.351 2.24718Z"/><path fill="none" d="M1.21181 1.05833h10.28051L6.351 2.24718Z"/><path d="m6.351 2.24718-2.8985 8.6915h.56017l1.1322-3.3962 3.3962 3.3962h.70642l-.01964-.05943-.22273-.66869Zm0 1.6759.48524 1.4557-1.2904.95963zm.66198 1.9849 1.3782 4.1346-2.96-2.9595z" color="#000" style="-inkscape-stroke:none"/><path d="m6.351 2.24718-2.8985 8.6915h.56017l1.1322-3.3962 3.3962 3.3962h.70642l-.01964-.05943-.22273-.66869Zm0 1.6759.48524 1.4557-1.2904.95963zm.66198 1.9849 1.3782 4.1346-2.96-2.9595z" color="#000" style="-inkscape-stroke:none"/></svg>