<?xml version="1.0" encoding="UTF-8"?>
<svg version="1.1" viewBox="0 0 16 16" xmlns="http://www.w3.org/2000/svg">
 <defs>
  <style id="current-color-scheme" type="text/css">.ColorScheme-Text {
        color:#232629;
      }</style>
 </defs>
 <path class="ColorScheme-Text" d="m7.5 2c-2.4853 0-4.5 2.0147-4.5 4.5-0.013331 0.19965-0.013331 0.39996 0 0.59961-1.2239 0.43231-2.031 1.6027-2 2.9004 0 1.6569 1.3432 3.0142 3 3 0 0 0.191 0.01093 0.33961-0.18698 0.11373-0.20472 0.096778-0.38083-0.018045-0.59167-0.16956-0.21372-0.32156-0.22136-0.32156-0.22136-1.1045-0.00919-2-0.89543-2-2 0-1.1046 0.89543-2 2-2 0.13313-0.013393 0.26726-0.013393 0.40039 0-0.24407-0.46372-0.3809-0.97633-0.40039-1.5 0-1.933 1.567-3.5 3.5-3.5s3.5 1.567 3.5 3.5c0.01192 0.16645 0.01192 0.33355 0 0.5 0.16625-0.016709 0.33375-0.016709 0.5 0 1.3807 0 2.5 1.1193 2.5 2.5 0 1.3807-1.1195 2.4777-2.5 2.5 0 0-0.20893 0.0092-0.36684 0.20938-0.14441 0.21588-0.1159 0.50231 0.01983 0.65185 0.14494 0.13233 0.34701 0.13881 0.34701 0.13881 1.933 0.005098 3.5-1.567 3.5-3.5 0.017972-1.7535-1.2644-3.2496-3-3.5-0.25579-2.2882-2.1976-4.0143-4.5-4z" fill="currentColor"/>
 <path class="ColorScheme-Text" d="m5.1552 6.208v7.7927l7.7927-3.8963z" fill="currentColor"/>
</svg>
